HIERARCHY
ROOT Hips
{
	OFFSET -0.001795 -0.223333 0.028219
	CHANNELS 6 Xposition Yposition Zposition Zrotation Yrotation Xrotation 
	JOINT LeftUpLeg
	{
		OFFSET 0.069520 -0.091406 -0.006815
		CHANNELS 3 Zrotation Yrotation Xrotation
		JOINT LeftLeg
		{
			OFFSET 0.034277 -0.375199 -0.004496
			CHANNELS 3 Zrotation Yrotation Xrotation
			JOINT LeftFoot
			{
				OFFSET -0.013596 -0.397961 -0.043693
				CHANNELS 3 Zrotation Yrotation Xrotation
				JOINT LeftToe
				{
					OFFSET 0.026358 -0.055791 0.119288
					CHANNELS 3 Zrotation Yrotation Xrotation
					End Site
					{
						OFFSET 0.000000 0.000000 0.000000
					}
				}
			}
		}
	}
	JOINT RightUpLeg
	{
		OFFSET -0.067670 -0.090522 -0.004320
		CHANNELS 3 Zrotation Yrotation Xrotation
		JOINT RightLeg
		{
			OFFSET -0.038290 -0.382569 -0.008850
			CHANNELS 3 Zrotation Yrotation Xrotation
			JOINT RightFoot
			{
				OFFSET 0.015774 -0.398415 -0.042312
				CHANNELS 3 Zrotation Yrotation Xrotation
				JOINT RightToe
				{
					OFFSET -0.025372 -0.048144 0.123348
					CHANNELS 3 Zrotation Yrotation Xrotation
					End Site
					{
						OFFSET 0.000000 0.000000 0.000000
					}
				}
			}
		}
	}
	JOINT Spine
	{
		OFFSET -0.002533 0.108963 -0.026696
		CHANNELS 3 Zrotation Yrotation Xrotation
		JOINT Spine1
		{
			OFFSET 0.005487 0.135180 0.001092
			CHANNELS 3 Zrotation Yrotation Xrotation
			JOINT Spine2
			{
				OFFSET 0.001457 0.052922 0.025425
				CHANNELS 3 Zrotation Yrotation Xrotation
				JOINT Neck
				{
					OFFSET -0.002778 0.213870 -0.042857
					CHANNELS 3 Zrotation Yrotation Xrotation
					JOINT Head
					{
						OFFSET 0.005152 0.064970 0.051349
						CHANNELS 3 Zrotation Yrotation Xrotation
						End Site
						{
							OFFSET 0.000000 0.000000 0.000000
						}
					}
				}
				JOINT LeftShoulder
				{
					OFFSET 0.078845 0.121749 -0.034090
					CHANNELS 3 Zrotation Yrotation Xrotation
					JOINT LeftArm
					{
						OFFSET 0.090977 0.030469 -0.008868
						CHANNELS 3 Zrotation Yrotation Xrotation
						JOINT LeftForeArm
						{
							OFFSET 0.259612 -0.012772 -0.027456
							CHANNELS 3 Zrotation Yrotation Xrotation
							JOINT LeftHand
							{
								OFFSET 0.249234 0.008986 -0.001171
								CHANNELS 3 Zrotation Yrotation Xrotation
								End Site
								{
									OFFSET 0.000000 0.000000 0.000000
								}
							}
						}
					}
				}
				JOINT RightShoulder
				{
					OFFSET -0.081759 0.118833 -0.038615
					CHANNELS 3 Zrotation Yrotation Xrotation
					JOINT RightArm
					{
						OFFSET -0.096012 0.032551 -0.009143
						CHANNELS 3 Zrotation Yrotation Xrotation
						JOINT RightForeArm
						{
							OFFSET -0.253742 -0.013329 -0.021401
							CHANNELS 3 Zrotation Yrotation Xrotation
							JOINT RightHand
							{
								OFFSET -0.255298 0.007772 -0.005559
								CHANNELS 3 Zrotation Yrotation Xrotation
								End Site
								{
									OFFSET 0.000000 0.000000 0.000000
								}
							}
						}
					}
				}
			}
		}
	}
}
MOTION
Frames: 16
Frame Time: 0.050000
0.000000 0.945784 0.000000 0.453274 17.315978 -1.903301 0.676830 0.388928 7.641796 -1.594264 0.123094 -0.367857 -3.208579 -1.530783 6.903265 0.000000 0.000000 0.000000 -0.507254 1.388034 -21.703581 4.424400 -2.040399 25.366220 -4.940087 -12.216869 1.855347 0.000000 0.000000 0.000000 0.035338 -0.593861 10.644842 3.830473 -1.766204 -0.874156 -5.582481 1.421391 8.291087 7.513520 -2.586676 -14.950393 0.000000 0.000000 0.000000 -23.672995 -1.529253 -4.976943 -40.673009 -2.236640 -3.261109 -6.388332 -30.730790 2.112730 0.000000 0.000000 0.000000 20.027121 -6.621313 -2.678014 51.917586 -4.791219 -7.736065 10.614752 36.428974 5.921968 0.000000 0.000000 0.000000 
0.004013 0.939902 0.029476 0.117012 16.507773 -1.160394 0.969272 0.457572 10.051731 -1.149968 0.142499 -2.608137 -2.503508 -1.076300 5.727219 0.000000 0.000000 0.000000 -0.483706 1.497760 -24.538133 5.327348 -1.516748 16.504444 -6.808117 -15.964839 7.524814 0.000000 0.000000 0.000000 0.747264 -0.609945 10.063241 3.400220 -1.361928 -2.566550 -6.126794 1.251978 9.574586 8.088896 -2.636625 -16.760239 0.000000 0.000000 0.000000 -20.027462 -0.561280 -4.493051 -44.802144 -4.467029 -3.239084 -4.582557 -32.203323 1.636996 0.000000 0.000000 0.000000 19.782386 -7.373225 -3.117570 52.714054 -7.758599 -9.080154 12.281043 39.091570 7.108913 0.000000 0.000000 0.000000 
0.007214 0.932307 0.062185 0.139797 14.818580 0.168519 0.746713 0.580170 11.442645 -0.917218 0.141392 -2.925201 -0.895629 0.296174 3.315336 0.000000 0.000000 0.000000 -0.230859 1.683408 -25.300773 4.014288 -0.618764 5.171519 -7.645757 -17.195961 13.984852 0.000000 0.000000 0.000000 1.064529 -0.565831 9.226798 2.742576 -0.975992 -3.499049 -5.630318 2.382761 10.322445 7.700739 -2.411496 -16.597984 0.000000 0.000000 0.000000 -20.766572 -1.930713 -3.979705 -44.379485 -4.703084 -3.125115 -5.542950 -32.062471 1.937264 0.000000 0.000000 0.000000 19.010902 -8.126096 -3.493407 53.994154 -9.091493 -9.771483 12.104880 39.559183 7.194606 0.000000 0.000000 0.000000 
0.009436 0.923973 0.098475 0.549586 14.398930 1.159562 0.719571 0.641320 12.698963 -0.882135 0.120513 -2.003058 -0.309748 0.110203 1.200103 0.000000 0.000000 0.000000 -0.474555 1.675169 -26.194227 3.068331 -0.418543 0.206161 -9.057398 -18.981657 21.474949 0.000000 0.000000 0.000000 1.582706 -0.508458 7.843390 3.218790 -1.335116 -2.122772 -7.089993 2.659120 8.862649 8.783884 -3.437020 -14.701505 0.000000 0.000000 0.000000 -21.066363 -1.663276 -4.321422 -44.379787 -4.154263 -3.148110 -5.992580 -32.806447 2.053875 0.000000 0.000000 0.000000 19.297863 -8.637176 -3.793848 53.361381 -10.316951 -9.989156 11.275348 40.593567 7.095550 0.000000 0.000000 0.000000 
0.010249 0.916323 0.140165 0.800503 13.980425 1.914292 0.673018 0.702985 13.853834 -0.850446 0.067323 0.000902 0.935448 1.787886 -0.090250 0.000000 0.000000 0.000000 0.072854 1.838497 -26.570298 2.467868 -0.319677 1.567738 -9.862046 -19.960307 25.152693 0.000000 0.000000 0.000000 2.307429 -0.477651 6.641056 3.303003 -1.419633 -1.697810 -8.306372 2.318814 8.199080 9.742766 -4.305442 -13.779774 0.000000 0.000000 0.000000 -21.498144 -2.088656 -4.110264 -43.675397 -3.174615 -3.364158 -6.429788 -33.930505 2.284944 0.000000 0.000000 0.000000 20.639508 -8.820883 -4.087683 52.453507 -11.912023 -10.438339 11.956335 42.386242 7.620779 0.000000 0.000000 0.000000 
0.009720 0.913407 0.187867 0.120024 12.155853 2.182955 1.012661 0.745456 14.825406 -0.703277 -0.063125 3.525879 2.377952 5.312977 1.259457 0.000000 0.000000 0.000000 1.556717 2.303416 -26.717507 3.387962 -0.462345 5.458466 -10.446478 -21.197657 24.508933 0.000000 0.000000 0.000000 3.407073 -0.440100 5.144953 3.649407 -1.665503 -0.965063 -8.367761 1.995396 7.359512 10.034475 -4.529270 -14.019335 0.000000 0.000000 0.000000 -22.818118 -1.269750 -4.513545 -43.332086 -1.336380 -3.933193 -6.503075 -33.874634 2.422963 0.000000 0.000000 0.000000 20.776279 -9.917174 -5.065500 51.431878 -12.833282 -10.502808 14.060689 42.226172 8.231285 0.000000 0.000000 0.000000 
0.007899 0.916343 0.239986 -0.488382 9.551760 2.419834 1.990733 0.646389 13.828802 -1.037103 -0.240516 9.231412 1.187876 6.488376 9.379568 0.000000 0.000000 0.000000 3.352749 2.787280 -25.830827 3.729143 -0.531807 9.171095 -9.435541 -20.496016 20.792639 0.000000 0.000000 0.000000 4.446355 -0.299283 2.668088 4.001848 -1.874478 -0.586680 -8.868032 1.809195 6.834266 10.941547 -5.523881 -12.878552 0.000000 0.000000 0.000000 -23.036158 -0.381022 -4.612597 -43.611469 0.976538 -4.857003 -7.321200 -33.783889 2.794365 0.000000 0.000000 0.000000 20.849598 -9.653227 -5.282438 50.241719 -14.091802 -10.666592 15.656404 43.449820 8.899592 0.000000 0.000000 0.000000 
0.004974 0.923030 0.292260 -1.412122 5.209308 3.009303 3.982616 0.349151 10.144882 -3.331495 0.018207 19.000961 -1.425647 4.656291 17.038025 0.000000 0.000000 0.000000 5.848848 3.279938 -23.950841 3.950031 -0.496016 10.901307 -7.417909 -18.160567 16.617161 0.000000 0.000000 0.000000 5.925026 -0.152870 0.274536 3.838872 -1.774266 -0.773236 -8.641889 3.294456 6.311108 10.264917 -5.407381 -11.631988 0.000000 0.000000 0.000000 -22.989714 -0.151915 -4.486386 -43.888580 3.504346 -5.816787 -8.841787 -33.116387 3.261509 0.000000 0.000000 0.000000 21.000071 -10.201870 -5.821751 48.455523 -15.045301 -10.582455 19.318570 43.503061 10.244712 0.000000 0.000000 0.000000 
0.001014 0.928954 0.340042 -2.065517 1.126335 1.967203 6.220926 0.071016 5.600332 -6.639486 1.402572 31.437995 -3.544302 3.582462 24.591822 0.000000 0.000000 0.000000 8.873056 3.172919 -19.139432 2.195438 -0.035864 10.697228 -5.480532 -15.216043 13.037429 0.000000 0.000000 0.000000 7.167575 -0.166483 0.499233 3.135815 -1.450684 -0.751834 -8.218996 3.548370 6.278183 10.849504 -5.976393 -11.642587 0.000000 0.000000 0.000000 -23.481863 -0.538691 -3.756685 -42.466317 4.881621 -6.202858 -10.002995 -32.846139 3.757953 0.000000 0.000000 0.000000 19.580678 -9.353996 -5.605207 48.668722 -16.067860 -10.967453 21.770999 44.501440 11.234355 0.000000 0.000000 0.000000 
-0.002966 0.933381 0.382138 -2.133708 -3.164922 1.261984 6.921712 -0.116385 -2.004396 -7.571692 3.097503 42.887151 -2.873446 4.255826 25.655776 0.000000 0.000000 0.000000 10.183200 2.543147 -14.589079 1.464824 0.159106 9.752796 -3.485931 -11.569597 10.207331 0.000000 0.000000 0.000000 7.245585 -0.228411 1.422269 2.661599 -1.193585 -1.664597 -7.147788 4.183620 6.355982 10.835908 -6.150358 -11.534611 0.000000 0.000000 0.000000 -24.413153 -0.667189 -3.245755 -41.005747 5.332393 -6.258709 -10.517042 -32.647649 4.046788 0.000000 0.000000 0.000000 19.696094 -9.119423 -5.889412 45.869725 -16.154804 -10.329152 26.330867 46.401653 13.476310 0.000000 0.000000 0.000000 
-0.006682 0.937849 0.420258 -1.825352 -9.055702 -0.045591 6.283208 -0.197317 -7.682097 -6.615696 4.513659 47.592411 0.321047 5.542553 15.914388 0.000000 0.000000 0.000000 10.982729 1.573514 -9.394059 0.039833 0.423156 8.534222 -0.834835 -6.259210 8.131749 0.000000 0.000000 0.000000 6.859240 -0.362175 3.397272 2.166944 -0.984751 -2.261966 -6.454391 6.519753 6.693648 12.447927 -7.451854 -11.230509 0.000000 0.000000 0.000000 -23.683168 -1.350703 -2.405685 -41.359854 4.459281 -6.203173 -8.658467 -32.424591 3.562993 0.000000 0.000000 0.000000 19.593854 -9.216228 -6.109829 44.882146 -15.243697 -9.850034 28.225226 47.035290 14.413127 0.000000 0.000000 0.000000 
-0.010135 0.941255 0.455428 -1.436285 -15.477606 -0.734075 5.642701 -0.218665 -13.704084 -3.909293 4.702523 47.943282 3.189422 7.558661 4.624473 0.000000 0.000000 0.000000 10.827512 0.876912 -6.182934 -0.996681 0.680519 9.073543 1.832620 -0.613307 6.814193 0.000000 0.000000 0.000000 6.728652 -0.367479 3.939121 1.580849 -0.759703 -1.633695 -5.962642 7.501358 6.362875 12.393869 -7.893448 -9.890103 0.000000 0.000000 0.000000 -24.174884 -0.310773 -2.288634 -39.608551 4.482142 -6.137238 -9.124655 -33.633207 4.034661 0.000000 0.000000 0.000000 18.304875 -7.522687 -5.511060 43.989598 -15.357631 -9.624175 33.461753 49.866961 17.464968 0.000000 0.000000 0.000000 
-0.012621 0.942876 0.488374 -0.496655 -22.530022 -1.244265 5.568862 0.087354 -17.664726 -1.441741 3.971272 41.891361 2.779144 6.248741 3.390976 0.000000 0.000000 0.000000 9.491905 0.337144 -3.861661 -2.055906 0.966951 9.844250 4.553785 5.660647 5.616696 0.000000 0.000000 0.000000 6.396856 -0.407417 4.945356 1.052267 -0.559957 -2.188534 -6.014533 9.620176 7.141610 12.435293 -7.879577 -10.864927 0.000000 0.000000 0.000000 -23.050486 -0.070268 -1.689839 -40.539912 3.483534 -6.258415 -7.522194 -34.504187 3.830407 0.000000 0.000000 0.000000 17.999096 -7.557569 -5.827316 43.775994 -15.104568 -9.560686 39.388853 50.818319 20.493744 0.000000 0.000000 0.000000 
-0.014189 0.942144 0.520219 -0.234110 -29.464755 -1.276712 6.117980 0.779183 -20.621624 1.392397 2.171755 32.965445 -0.332641 -0.697784 -0.910784 0.000000 0.000000 0.000000 8.710490 -0.037329 -2.019053 -3.795133 1.317952 10.206323 7.053231 11.936777 4.659961 0.000000 0.000000 0.000000 6.168834 -0.430470 5.756217 0.223851 -0.268405 -3.135657 -4.611074 10.526515 8.664210 10.880522 -6.875123 -12.161229 0.000000 0.000000 0.000000 -22.607353 0.565709 -0.919501 -40.716548 2.640236 -6.440371 -7.115824 -37.171225 4.385043 0.000000 0.000000 0.000000 16.364121 -6.869135 -5.810727 43.706265 -14.207210 -9.300027 44.494259 52.442809 23.104406 0.000000 0.000000 0.000000 
-0.015226 0.940306 0.552960 0.711340 -35.826450 -2.518007 6.400005 1.295790 -20.430048 3.776071 0.163624 20.554143 -6.937000 -11.901407 3.537287 0.000000 0.000000 0.000000 6.926246 -0.337663 0.243944 -5.573043 1.723971 10.825963 9.035804 17.842713 3.571241 0.000000 0.000000 0.000000 5.382115 -0.435689 7.130059 -0.569344 -0.003516 -3.562199 -4.245222 11.081121 9.951243 11.309873 -7.429518 -12.611724 0.000000 0.000000 0.000000 -22.599010 0.843975 -0.027661 -40.451595 0.375171 -6.127816 -5.341472 -37.424708 4.146682 0.000000 0.000000 0.000000 16.483390 -5.897988 -6.016169 42.707701 -13.728101 -8.902299 48.365246 54.262552 25.297870 0.000000 0.000000 0.000000 
-0.015772 0.937324 0.587936 1.173936 -41.281173 -3.311931 7.077665 1.854468 -19.909882 4.496636 -0.584887 11.194072 -15.071936 -18.457434 17.146854 0.000000 0.000000 0.000000 5.388877 -0.374703 1.296895 -7.358679 2.426613 12.657303 10.503883 22.779029 2.733764 0.000000 0.000000 0.000000 4.477050 -0.390642 7.885944 -0.363830 0.028479 -2.115701 -4.611776 12.081106 8.982790 11.964603 -7.792591 -13.501532 0.000000 0.000000 0.000000 -21.983028 -0.463793 1.141172 -40.664950 -0.535613 -5.923643 -3.417505 -38.497365 3.709536 0.000000 0.000000 0.000000 17.977300 -6.191623 -6.911165 42.772214 -14.521983 -9.063744 48.503203 55.499027 25.702560 0.000000 0.000000 0.000000 
